<svg xmlns="http://www.w3.org/2000/svg" viewBox="0 0 283 73"><defs><path id="a" d="M0 72.99h281.848V.022H0z"/></defs><g fill="none" fill-rule="evenodd"><path fill="#FFF" d="M187.232 48.66h11.347v-4.055h-11.347zm11.347-2.433h4.863V34.873h-4.863z"/><path fill="#0097D9" d="M164.537 27.574v-6.256h5.633V15.41h30.03v12.114z"/><path stroke="#00A0CF" stroke-width=".066" d="M164.537 27.574v-6.256h5.633V15.41h30.03v12.114z"/><path fill="#000" d="M198.876 0v27.406H0V72.99h198.876V49.437h-10.833V45.44h10.833l.01-10.65h4.058v10.65h79.092L282.063 0z"/><path d="M215.373 13.89h5.526c2.184 0 3.534.576 3.534 2.468 0 1.826-1.51 2.564-3.406 2.564h-5.654V13.89zm-4.626 19.037h9.766c4.723 0 5.976-.8 7.293-2.083a6.675 6.675 0 0 0 1.99-4.743c0-2.276-.737-4.52-3.565-5.574.963-.481 2.828-1.414 2.828-4.715 0-2.37-1.446-5.896-7.1-5.896h-11.212v23.011zm4.626-10.128h6.136c1.735 0 3.469.769 3.469 2.789 0 2.339-1.348 3.365-3.694 3.365h-5.911V22.8zm37.554 1.604c0-6.155-4.144-8.975-8.739-8.975-4.593 0-8.736 2.82-8.736 8.975 0 6.154 4.143 8.974 8.736 8.974 4.595 0 8.74-2.82 8.74-8.974m-4.626 0c0 2.178-.643 5.192-4.114 5.192-3.468 0-4.11-3.014-4.11-5.192 0-2.18.642-5.193 4.11-5.193 3.471 0 4.114 3.014 4.114 5.193m20.302-3.333c-.193-1.09-.578-2.244-3.02-2.244-2.441 0-2.763.93-2.763 1.668 0 2.691 10.697.736 10.697 7.018 0 4.968-4.817 5.865-7.484 5.865-3.888 0-8.095-1.347-8.225-5.897h4.628c0 1.442.899 2.499 3.725 2.499 2.314 0 2.859-1.122 2.859-1.763 0-2.852-10.6-.704-10.6-7.081 0-2.502 1.574-5.707 6.907-5.707 3.34 0 7.324.834 7.678 5.642h-4.402zM8.74 37.459h5.14c2.957 12.595 3.246 14.197 3.663 16.826h.065c.417-2.403.77-4.744 3.212-16.826h5.108c2.698 12.627 2.924 13.845 3.436 16.826h.065c.386-2.18.77-4.166 3.76-16.826h4.881L31.582 60.47h-4.627c-2.377-11.28-2.794-13.524-3.565-17.948h-.065c-.707 4.424-1.092 6.09-3.566 17.948h-4.497L8.74 37.46z" fill="#FFF"/><mask id="b" fill="#fff"><use xmlns:xlink="http://www.w3.org/1999/xlink" xlink:href="#a"/></mask><path d="M43.336 41.401h4.498v-4.166h-4.498V41.4zm0 19.07h4.498V43.42h-4.498v17.05zM60.042 43.42h2.795v3.206h-2.795v9.262c0 .994.032 1.377 1.862 1.377.29 0 .61-.03.933-.063V60.6c-.707.03-1.415.063-2.12.063h-.58c-3.885 0-4.593-1.473-4.593-3.686V46.626H53.23V43.42h2.314v-4.615h4.498v4.615zm13.538 0h2.796v3.206H73.58v9.262c0 .994.033 1.377 1.863 1.377.289 0 .612-.03.933-.063V60.6c-.708.03-1.415.063-2.12.063h-.58c-3.886 0-4.593-1.473-4.593-3.686V46.626h-2.314V43.42h2.314v-4.615h4.497v4.615zm16.778 12.05c-.354 1.218-1.639 1.859-2.891 1.859-3.63 0-3.888-2.885-4.016-4.167h11.726v-.8c0-7.788-4.658-9.39-8.031-9.39-7.485 0-8.192 6.57-8.192 8.62 0 7.019 3.694 9.327 8.513 9.327 2.924 0 6.327-1.346 7.517-5.448h-4.626zm-6.779-5.223c.258-2.243 1.383-3.59 3.501-3.59 1.446 0 3.213.834 3.471 3.59H83.58zm25.728 10.224h-4.723L98.45 43.42h5.01l3.533 12.564h.065l3.63-12.564h4.786zm19.797-5.001c-.354 1.218-1.64 1.859-2.892 1.859-3.631 0-3.887-2.885-4.015-4.167h11.725v-.8c0-7.788-4.658-9.39-8.031-9.39-7.484 0-8.192 6.57-8.192 8.62 0 7.019 3.694 9.327 8.513 9.327 2.924 0 6.328-1.346 7.517-5.448h-4.625zm-6.78-5.223c.257-2.243 1.383-3.59 3.502-3.59 1.446 0 3.212.834 3.47 3.59h-6.971zm27.5 5.223c-.354 1.218-1.639 1.859-2.891 1.859-3.63 0-3.888-2.885-4.016-4.167h11.726v-.8c0-7.788-4.658-9.39-8.032-9.39-7.484 0-8.191 6.57-8.191 8.62 0 7.019 3.694 9.327 8.513 9.327 2.923 0 6.33-1.346 7.517-5.448h-4.626zm-6.779-5.223c.258-2.243 1.383-3.59 3.503-3.59 1.444 0 3.213.834 3.47 3.59h-6.973zm32.897 10.224h-4.497V50.12c0-1.25-.065-3.366-2.924-3.366-1.99 0-3.534 1.345-3.534 3.942v9.775h-4.497V43.42h4.304v2.5h.065c.61-1.026 1.895-2.949 5.14-2.949 3.34 0 5.943 1.956 5.943 5.706v11.794z" fill="#FFF" mask="url(#b)"/></g></svg>